<?xml version="1.0" encoding="UTF-8" standalone="no"?><!DOCTYPE svg PUBLIC "-//W3C//DTD SVG 1.1//EN" "http://www.w3.org/Graphics/SVG/1.1/DTD/svg11.dtd"><svg width="100%" height="100%" viewBox="0 0 2084 2084" version="1.1" xmlns="http://www.w3.org/2000/svg" xmlns:xlink="http://www.w3.org/1999/xlink" xml:space="preserve" xmlns:serif="http://www.serif.com/" style="fill-rule:evenodd;clip-rule:evenodd;stroke-linejoin:round;stroke-miterlimit:2;"><path d="M2083.33,355.572c0,-196.246 -159.326,-355.572 -355.572,-355.572l-1372.19,0c-196.246,0 -355.572,159.326 -355.572,355.572l0,1372.19c0,196.246 159.326,355.572 355.572,355.572l1372.19,0c196.246,0 355.572,-159.326 355.572,-355.572l0,-1372.19Z" style="fill:#18181a;"/><path d="M1255.74,873.313c138.601,31.274 272.11,91.413 391.288,180.407c0,0 -60.758,77.016 -182.277,231.056c0,-0 120.415,-81.356 361.239,-244.07c-216.93,-215.678 -500.609,-323.499 -784.288,-323.499c-283.679,-0 -567.358,107.877 -784.358,323.499c240.825,162.712 361.238,244.07 361.238,244.07c-121.517,-154.032 -182.277,-231.056 -182.277,-231.056c119.175,-89.003 252.747,-149.14 391.289,-180.407c-48.91,52.355 -78.877,122.619 -78.877,199.912c-0,161.748 131.161,292.902 292.902,292.902c161.741,-0 292.902,-131.162 292.902,-292.902c0.069,-77.223 -29.897,-147.557 -78.808,-199.912l0.027,-0Zm-214.038,51.799c81.838,0 148.107,66.339 148.107,148.107c-0,81.838 -66.338,148.107 -148.107,148.107c-81.838,0 -148.107,-66.338 -148.107,-148.107c-0,-81.768 66.269,-148.107 148.107,-148.107Z" style="fill:#c8b5ff;"/></svg>